<svg width="70" height="82" viewBox="0 0 70 82" fill="none" xmlns="http://www.w3.org/2000/svg">
<path d="M29.1051 13.6086C29.1051 13.6123 29.1032 13.6123 29.1032 13.6139C20.4535 44.0322 51.8226 42.1509 46.4266 67.2627C46.4006 67.3831 46.2221 67.3551 46.2334 67.2328C46.5317 63.9954 46.1956 60.7185 45.2349 57.6079C41.1611 44.2547 21.6284 42.0596 15.5623 35.6961C17.0246 33.4607 16.8017 30.4673 14.9591 28.4796C14.8847 28.3929 14.796 28.3064 14.709 28.2197L14.6436 28.1597C12.4385 28.1191 10.5818 29.7249 10.2314 31.8566C8.34354 32.4389 6.68924 33.3993 5.30532 34.625C1.099 38.3432 -0.607587 44.5027 1.24002 49.9445C4.75796 52.1993 9.4733 51.7772 12.5396 48.6746C12.5762 51.575 12.1665 53.4516 11.4883 54.6846C11.4867 54.6863 11.4849 54.6899 11.483 54.6916C10.0189 57.3703 7.29605 56.9992 5.06302 57.599C1.91481 58.5401 0.450355 62.3496 2.33823 65.2077C6.74869 61.6408 9.74507 62.3144 13.3868 63.8147C15.4035 65.0653 17.9365 65.0477 19.9288 63.8534C21.4368 55.2281 31.0852 50.692 38.6335 55.1858C38.6369 55.1876 38.6385 55.1911 38.6422 55.1929C32.0806 52.2978 24.353 55.5077 21.7801 62.376V62.3795C20.206 68.0008 21.2172 71.8614 24.2955 75.3421C24.9302 76.0598 24.5397 77.203 23.6071 77.3771C18.8445 78.2704 13.2192 79.5192 12.8012 81.2079H34.3853C48.6549 81.2079 59.9754 69.7877 60.6064 56.111C61.7587 45.2414 56.5483 34.9486 57.0573 29.1181C56.9589 25.5971 60.042 23.0068 63.3178 23.5345C63.4187 23.5507 63.4633 23.4092 63.3709 23.3639C58.255 20.8424 51.7189 23.7244 50.6643 29.9546C50.6535 30.019 50.5593 30.0126 50.5571 29.9477C50.3765 25.3389 53.7896 21.3343 58.3978 20.8816C63.4774 20.3819 67.485 24.3886 67.8666 28.4128C67.9006 28.5037 67.9914 28.486 68.0145 28.4246C77.4819 2.74463 38.9845 -12.1288 29.1051 13.6086Z" fill="white"/>
</svg>
