<svg width="70" height="82" viewBox="0 0 70 82" fill="none" xmlns="http://www.w3.org/2000/svg">
<g clip-path="url(#clip0_1_2)">
<path d="M29.1051 13.6086C29.1051 13.6123 29.1032 13.6139 29.1032 13.6139C20.4535 44.0322 51.8226 42.1509 46.4266 67.2627C46.4006 67.3831 46.2221 67.3551 46.2334 67.2328C46.5317 63.9954 46.1956 60.7185 45.2349 57.6079C41.1611 44.2547 21.6284 42.0596 15.5623 35.6961C17.0246 33.4607 16.8017 30.4673 14.9591 28.4796C14.8847 28.3929 14.796 28.3064 14.709 28.2197L14.6436 28.1597C12.4385 28.1191 10.5818 29.7249 10.2314 31.8566C8.34354 32.4389 6.68924 33.3993 5.30532 34.625C1.099 38.3432 -0.607586 44.5027 1.24002 49.9445C4.75796 52.1993 9.4733 51.7772 12.5396 48.6746C12.5762 51.575 12.1665 53.4516 11.4883 54.6846C11.4867 54.6863 11.4849 54.6899 11.483 54.6916C10.0189 57.3703 7.29605 56.9992 5.06302 57.599C1.91481 58.5401 0.450356 62.3496 2.33823 65.2077C6.74869 61.6408 9.74507 62.3144 13.3868 63.8147C15.4035 65.0653 17.9365 65.0477 19.9288 63.8534C21.4368 55.2281 31.0852 50.692 38.6335 55.1858C38.6369 55.1876 38.6385 55.1911 38.6422 55.1929C32.0806 52.2978 24.353 55.5077 21.7801 62.376V62.3795C20.206 68.0008 21.2172 71.8614 24.2955 75.3421C24.9302 76.0598 24.5397 77.203 23.6071 77.3771C18.8445 78.2704 13.2192 79.5192 12.8012 81.2079H34.3853C48.6549 81.2079 59.9754 69.7877 60.6064 56.111C61.7587 45.2414 56.5483 34.9486 57.0573 29.1181C56.9589 25.5971 60.042 23.0068 63.3178 23.5345C63.4187 23.5507 63.4633 23.4092 63.3709 23.3639C58.255 20.8424 51.7189 23.7244 50.6643 29.9546C50.6535 30.019 50.5593 30.0126 50.5571 29.9477C50.3765 25.3389 53.7896 21.3343 58.3978 20.8816C63.4774 20.3819 67.485 24.3886 67.8666 28.4128C67.9006 28.5037 67.9914 28.486 68.0145 28.4246C77.4819 2.74463 38.9845 -12.1288 29.1051 13.6086Z" fill="white"/>
<path d="M3.57758 31.3468C3.57758 31.3468 5.30886 24.5811 12.2351 21.7466C12.2351 21.7466 14.9632 17.8111 23.4634 20.2247C23.4634 20.2247 25.9822 21.9039 26.402 22.8476C26.402 22.8476 30.1271 23.4779 30.1271 27.7801C30.1271 27.7801 30.8615 28.8822 30.6521 31.6103L31.2292 37.4344L28.4479 39.5855L28.2906 38.5365C28.2906 38.5365 25.6145 34.4958 25.4572 33.2375C25.4572 33.2375 24.7228 32.6604 24.7228 34.0771L25.4572 36.2802L5.04635 34.6988L3.57758 31.3468Z" fill="#E14B4B"/>
<path d="M26.5456 28.2498C25.9472 25.5992 25.0725 23.0113 23.9258 20.5425C24.4614 20.9261 25.3489 21.5936 25.9153 22.1919C26.3001 24.1878 26.5073 26.2156 26.5456 28.2498Z" fill="#D03F3E"/>
<path d="M18.8191 22.4438C19.0518 22.431 19.2537 22.5256 19.4302 22.6765C19.2293 22.5947 19.021 22.5192 18.8191 22.4438Z" fill="#D03F3E"/>
<path d="M25.4498 33.23C25.3744 33.179 24.7324 32.7454 24.7261 34.0611C24.4423 33.6838 24.2032 33.2555 23.9322 32.8708C23.1765 31.7878 22.0808 30.9886 21.0105 30.2075C18.9636 28.7153 16.855 27.1976 14.4244 26.4803C15.6211 26.4176 16.786 26.8459 17.8998 27.2795C20.104 28.1361 22.3762 29.1245 23.8312 30.9822C23.8248 29.7356 23.1574 28.6016 22.5091 27.5377C21.6588 26.1402 20.8086 24.7415 19.9584 23.344C19.8138 23.1048 19.6374 22.8466 19.4291 22.6765C20.3739 23.0358 21.2869 23.4758 21.9979 24.1814C22.9427 25.1199 23.4146 26.4165 23.8301 27.6823C24.4295 29.5092 24.9716 31.3659 25.4498 33.23Z" fill="#D03F3E"/>
<path d="M0.0225577 38.3803C0.0225577 37.5609 0.0151182 38.5015 0.00767868 38.1582C-0.0220794 39.0796 -0.00294919 34.0027 0.781389 33.467C1.34254 32.9027 1.85587 31.1916 2.30543 31.8473C2.6891 31.5274 2.95692 31.9993 3.17267 31.435C3.38841 31.3223 3.55208 30.8133 3.72638 31.3553C3.90068 31.2299 4.08666 31.7219 4.34705 31.571C4.60743 31.96 4.94115 31.7219 5.41409 32.044C5.41409 32.4128 5.58945 31.6008 5.85408 31.9929C6.11978 32.3309 6.47475 32.0631 6.8361 31.8452C7.19745 31.4669 7.56517 31.2532 7.85319 31.6103C8.07 31.8644 8.37183 31.9281 8.70449 31.5561C9.03608 31.2479 9.39849 31.3574 9.7322 31.7039C10.067 32.1694 10.3741 32.2044 10.5984 31.9037C10.8226 32.2331 10.9618 31.7963 10.9618 32.0036C10.9618 32.0185 11.0469 32.3203 11.1999 31.994C11.353 31.9101 11.5719 32.1651 11.8408 31.9791C12.1097 32.3671 12.4274 31.9101 12.775 31.9802C13.1236 31.6273 13.5019 31.3425 13.893 32.0174C14.2841 31.7241 14.6869 31.8197 15.0844 32.112C15.4819 31.9855 15.873 32.079 16.2407 32.2852C16.6074 32.2013 16.9507 32.8039 17.2504 32.5562C17.5511 32.2629 17.8083 32.0046 18.005 32.9473C18.005 32.7518 18.0974 33.2173 18.2632 33.009C18.429 33.1131 18.6671 32.908 18.9583 33.1822C19.2495 33.1599 19.5928 33.3151 19.9701 33.449C20.3463 33.0451 20.7555 33.7168 21.1774 33.7933C21.5993 34.0091 22.034 34.5288 22.4602 34.1961C22.8874 33.7806 23.3061 34.3991 23.6983 34.6404C24.0905 35.3917 24.455 34.8104 24.7717 35.109C25.0884 35.2653 25.3584 35.1611 25.5593 35.5841C25.5593 35.5937 25.7304 36.1431 25.7601 36.1697C25.8154 36.2547 25.876 36.9009 25.9344 36.8541C26.1714 37.4929 26.3096 40.3582 25.9142 41.4868C25.9142 41.4837 25.8675 41.2892 25.7718 41.6526C25.6762 41.7185 25.5316 41.506 25.3382 42.0044C25.1448 42.2754 24.9003 42.1192 24.6059 42.3201C24.3115 42.8164 23.9651 42.5985 23.5676 42.3785C23.1701 42.1564 22.7195 41.9832 22.2157 41.9587C22.2157 41.456 22.186 41.8036 22.1286 41.929C22.0712 42.1925 21.9851 41.6771 21.8724 41.8461C21.7598 41.2041 21.6206 41.9173 21.4569 41.7185C21.2922 41.5432 21.103 41.726 20.8894 41.557C20.6757 42.0831 20.4387 41.3455 20.1794 41.3699C19.9201 40.9916 19.6374 40.6919 19.3345 41.1659C19.0316 41.218 18.7075 40.5686 18.3642 40.9555C18.0209 40.61 17.6574 41.304 17.2759 40.7471C16.8943 40.9012 16.4947 40.44 16.0792 40.5505C15.6626 40.3911 15.23 40.6387 14.7815 40.3752C14.333 40.4071 13.8696 40.4931 13.3924 40.2296C12.9153 40.1732 12.4232 39.8416 11.9194 40.1243C11.4157 39.916 10.8991 40.067 10.372 40.068C9.84486 39.882 9.30602 40.0011 8.75762 40.0691C7.80005 39.8278 6.95938 40.0096 6.22287 40.0829C5.48636 40.1658 4.854 40.017 4.31091 40.0106C3.76783 39.8799 3.31402 39.8246 2.9346 39.881C2.55518 40.3327 2.25016 39.6854 2.00572 39.7194C1.76128 39.6493 1.57636 39.2401 1.43713 39.5504C1.2979 39.5366 1.20332 39.1508 1.13955 39.3985C1.07578 39.3241 1.04284 39.4569 1.02583 39.289C1.00883 39.5069 1.00776 39.8087 1.00776 39.2465C1.00776 39.9139 0.820713 39.3995 0.604966 39.0647C0.387094 39.1094 0.140527 39.4601 0.0225577 38.3803Z" fill="#DAE5EF"/>
<path d="M33.5759 38.3973C34.5133 39.8799 33.8086 42.1426 32.326 43.08C30.8435 44.0173 28.8815 43.5742 27.9442 42.0916C27.0068 40.609 27.45 38.6471 28.9326 37.7097C30.4141 36.7723 32.6385 36.9137 33.5759 38.3973Z" fill="#DAE5EF"/>
<path d="M33.459 41.8535C33.1827 42.353 32.7894 42.7781 32.3218 43.0757C30.8445 44.0216 28.8784 43.5752 27.9431 42.0873C27.0079 40.61 27.4436 38.6439 28.9315 37.7086C29.0059 37.6661 29.0697 37.6236 29.1441 37.5917C28.6339 38.5589 28.6446 39.7704 29.2716 40.7588C30.1643 42.183 32.0136 42.6506 33.459 41.8535Z" fill="#CBD6E0"/>
<path d="M29.2897 37.6566C29.3024 37.614 29.296 37.5705 29.2822 37.529C29.2769 37.5311 29.2726 37.5343 29.2673 37.5365L29.2897 37.6566Z" fill="#CBD6E0"/>
</g>
<defs>
<clipPath id="clip0_1_2">
<rect width="70" height="82" fill="white"/>
</clipPath>
</defs>
</svg>
