<svg width="512" height="512" viewBox="0 0 512 512" fill="none" xmlns="http://www.w3.org/2000/svg">
<path d="M356.577 20.47C244.17 -27.11 114.517 10.696 45.89 109.82L23.99 93.4C14.28 86.06 0 92.97 0 105.4V255.4C0 266.44 11.57 273.77 21.71 268.82L141.71 208.82C151.62 203.85 152.93 190.11 143.99 183.4L118.39 164.19C167.21 90.03 258.857 76.85 321.527 103.35C455.737 160.2 455.537 352.051 321.507 408.771C235.644 445.123 138.293 404.415 102.95 320.951C93.28 298.041 66.91 287.331 44 297.021C21.05 306.691 10.38 333.141 20.06 355.961C74.32 484.581 225.467 547.191 356.548 491.651C563.958 404.081 563.667 107.95 356.577 20.47Z" fill="#9A143C"/>
</svg>
