<svg width="708" height="176" viewBox="0 0 708 176" fill="none" xmlns="http://www.w3.org/2000/svg">
<path d="M477.604 83.0277C476.899 88.5731 475.234 93.2241 472.608 96.9806C470.046 100.648 466.971 103.152 463.384 104.494C466.651 105.567 469.181 107.758 470.975 111.068C472.832 114.377 473.761 118.313 473.761 122.874C473.761 124.305 473.665 125.781 473.473 127.302C472.512 135.351 469.758 141.657 465.21 146.219C460.662 150.78 454.769 153.061 447.531 153.061H414L426.01 58.4758H458.484C464.633 58.4758 469.405 60.2199 472.8 63.7082C476.195 67.107 477.892 71.9816 477.892 78.3319C477.892 79.8525 477.796 81.4177 477.604 83.0277ZM457.716 87.8575C457.78 87.4103 457.812 86.7395 457.812 85.8451C457.812 81.5519 455.794 79.4053 451.759 79.4053H442.247L440.133 96.1757H449.645C454.321 96.1757 457.011 93.4029 457.716 87.8575ZM454.737 123.545C454.801 123.098 454.833 122.472 454.833 121.667C454.833 119.431 454.289 117.731 453.2 116.568C452.175 115.316 450.638 114.69 448.588 114.69H437.731L435.618 131.997H446.571C451.246 131.997 453.969 129.18 454.737 123.545Z" fill="white"/>
<path d="M504.496 58.4758L492.582 153.061H473.655L485.665 58.4758H504.496Z" fill="white"/>
<path d="M561.242 153.061H542.314L524.059 100.201L517.334 153.061H498.406L510.416 58.4758H529.248L547.599 112.007L554.324 58.4758H573.155L561.242 153.061Z" fill="white"/>
<path d="M570.816 105.567C571.969 96.2651 574.435 87.9917 578.214 80.7469C581.993 73.4126 586.733 67.7331 592.433 63.7082C598.134 59.5938 604.379 57.5367 611.169 57.5367C619.688 57.5367 626.349 60.3988 631.153 66.1231C636.021 71.8474 638.519 79.6736 638.647 89.6017H618.375C617.67 87.0973 616.453 85.1743 614.724 83.8326C612.994 82.491 610.816 81.8202 608.19 81.8202C603.514 81.8202 599.511 83.9668 596.18 88.26C592.914 92.5532 590.832 98.3223 589.935 105.567C589.615 108.25 589.455 110.486 589.455 112.275C589.455 118.268 590.672 122.829 593.106 125.96C595.54 129.001 599.127 130.521 603.867 130.521C610.464 130.521 615.716 126.362 619.624 118.044H600.696L603.098 99.1272H638.263L634.996 124.618C631.665 132.579 626.894 139.421 620.68 145.145C614.467 150.87 607.294 153.732 599.159 153.732C593.138 153.732 587.95 152.166 583.594 149.036C579.239 145.816 575.908 141.344 573.602 135.62C571.296 129.895 570.143 123.277 570.143 115.763C570.143 112.186 570.367 108.787 570.816 105.567Z" fill="white"/>
<path d="M667.743 154C662.042 154 657.014 152.345 652.659 149.036C648.303 145.727 644.941 141.076 642.571 135.083C640.201 129.09 639.016 122.203 639.016 114.422C639.016 103.242 640.681 93.3135 644.012 84.6376C647.407 75.8723 652.114 69.0747 658.135 64.2448C664.22 59.4149 671.17 57 678.984 57C684.813 57 689.905 58.6547 694.261 61.964C698.68 65.184 702.075 69.7902 704.445 75.7828C706.815 81.686 708 88.5284 708 96.3098C708 107.401 706.303 117.329 702.908 126.094C699.513 134.859 694.773 141.702 688.688 146.621C682.603 151.54 675.622 154 667.743 154ZM670.625 129.582C674.405 129.582 677.703 128.196 680.522 125.423C683.404 122.651 685.582 118.983 687.055 114.422C688.592 109.771 689.361 104.762 689.361 99.3956C689.361 93.6713 688.24 89.2439 685.998 86.1134C683.82 82.8935 680.682 81.2835 676.582 81.2835C672.803 81.2835 669.473 82.6699 666.59 85.4426C663.708 88.1259 661.498 91.7483 659.961 96.3098C658.424 100.871 657.655 105.88 657.655 111.336C657.655 116.971 658.776 121.443 661.018 124.752C663.259 127.972 666.462 129.582 670.625 129.582Z" fill="white"/>
<path d="M328.87 34.6759C328.87 34.6794 328.868 34.6794 328.868 34.6809C320.664 63.4539 350.417 61.6744 345.299 85.428C345.274 85.5418 345.105 85.5154 345.116 85.3997C345.399 82.3373 345.08 79.2377 344.169 76.2954C340.305 63.6644 321.778 61.5881 316.025 55.5688C317.412 53.4542 317.2 50.6227 315.453 48.7426C315.382 48.6606 315.298 48.5787 315.215 48.4967L315.153 48.44C313.062 48.4015 311.301 49.9205 310.968 51.9369C309.178 52.4878 307.609 53.3961 306.296 54.5556C302.307 58.0727 300.688 63.899 302.44 69.0465C305.777 71.1794 310.249 70.7801 313.158 67.8453C313.192 70.5887 312.804 72.3639 312.161 73.5302C312.159 73.5318 312.157 73.5352 312.156 73.5368C310.767 76.0707 308.184 75.7196 306.066 76.2869C303.08 77.1772 301.691 80.7806 303.482 83.4841C307.665 80.1101 310.507 80.7473 313.961 82.1665C315.874 83.3494 318.277 83.3327 320.166 82.2031C321.597 74.0443 330.748 69.7536 337.907 74.0043C337.911 74.006 337.912 74.0093 337.916 74.011C331.692 71.2725 324.363 74.3088 321.922 80.8056V80.8089C320.429 86.1261 321.388 89.7779 324.308 93.0704C324.91 93.7492 324.54 94.8306 323.655 94.9953C319.138 95.8403 313.802 97.0216 313.406 98.6189H333.878C347.412 98.6189 358.15 87.8164 358.748 74.8794C359.841 64.5977 354.899 54.8617 355.382 49.3465C355.289 46.0159 358.213 43.5658 361.32 44.0649C361.416 44.0802 361.458 43.9464 361.37 43.9035C356.518 41.5184 350.319 44.2446 349.318 50.1378C349.308 50.1987 349.219 50.1927 349.217 50.1313C349.045 45.7717 352.283 41.9838 356.653 41.5555C361.471 41.0829 365.273 44.8728 365.634 48.6794C365.667 48.7654 365.753 48.7486 365.775 48.6905C374.754 24.3995 338.24 10.3306 328.87 34.6759Z" fill="white"/>
<path d="M299.505 77.4958L299.486 77.4366L299.486 77.436C299.367 77.0556 299.252 76.6902 299.18 76.3294C299.122 76.0386 298.979 75.7792 298.778 75.5782C298.577 75.3772 298.317 75.2346 298.027 75.1762C297.666 75.1039 297.301 74.9894 296.92 74.8701L296.86 74.8514C294.49 74.1103 291.283 73.1214 286.324 77.6771C286.324 77.6771 288.676 81.4315 290.65 83.4342C292.729 85.5426 296.679 88.032 296.679 88.032C301.235 83.0731 300.246 79.8658 299.505 77.4958Z" fill="white"/>
<path d="M281.107 91.1705L283.257 89.0206C280.79 85.8293 280.204 81.6779 282.146 79.7362L283.186 78.6967C283.76 78.1226 284.69 78.1226 285.265 78.6967C285.265 78.6967 287.738 82.4932 289.772 84.5319C291.825 86.5908 295.659 89.0915 295.659 89.0915C296.233 89.6656 296.233 90.5964 295.659 91.1705L294.62 92.21C292.678 94.1517 288.527 93.5662 285.335 91.0995L283.186 93.2495L281.107 91.1705Z" fill="white"/>
<path d="M81.2165 81.1754V152.891H63.7474V109.882L47.7085 152.891H33.6106L17.4696 109.78V152.891H0.000488281V81.1754H20.6365L40.7617 130.824L60.6826 81.1754H81.2165Z" fill="white"/>
<path d="M109.511 153.708C103.927 153.708 98.8867 152.516 94.3918 150.132C89.9649 147.749 86.4574 144.343 83.8694 139.917C81.3495 135.49 80.0896 130.314 80.0896 124.388C80.0896 118.531 81.3836 113.389 83.9716 108.962C86.5596 104.468 90.1011 101.028 94.5961 98.6445C99.091 96.2608 104.131 95.0689 109.716 95.0689C115.3 95.0689 120.34 96.2608 124.835 98.6445C129.33 101.028 132.871 104.468 135.459 108.962C138.047 113.389 139.341 118.531 139.341 124.388C139.341 130.246 138.013 135.422 135.357 139.917C132.769 144.343 129.194 147.749 124.631 150.132C120.136 152.516 115.096 153.708 109.511 153.708ZM109.511 138.588C112.848 138.588 115.675 137.363 117.99 134.911C120.374 132.459 121.566 128.952 121.566 124.388C121.566 119.825 120.408 116.318 118.093 113.866C115.845 111.414 113.053 110.188 109.716 110.188C106.31 110.188 103.484 111.414 101.236 113.866C98.9889 116.25 97.8651 119.757 97.8651 124.388C97.8651 128.952 98.9548 132.459 101.134 134.911C103.382 137.363 106.174 138.588 109.511 138.588Z" fill="white"/>
<path d="M155.862 105.387C157.906 102.254 160.46 99.8023 163.524 98.0315C166.589 96.1927 169.994 95.2732 173.74 95.2732V113.764H168.939C164.58 113.764 161.311 114.717 159.132 116.624C156.952 118.463 155.862 121.732 155.862 126.432V152.891H138.393V95.8862H155.862V105.387Z" fill="white"/>
<path d="M225.61 123.469C225.61 125.104 225.507 126.806 225.303 128.577H185.768C186.04 132.118 187.164 134.843 189.139 136.75C191.182 138.588 193.668 139.508 196.597 139.508C200.955 139.508 203.986 137.669 205.689 133.991H224.282C223.328 137.737 221.591 141.108 219.071 144.105C216.62 147.102 213.521 149.451 209.775 151.154C206.029 152.857 201.841 153.708 197.21 153.708C191.625 153.708 186.653 152.516 182.294 150.132C177.936 147.749 174.53 144.343 172.079 139.917C169.627 135.49 168.401 130.314 168.401 124.388C168.401 118.463 169.593 113.287 171.976 108.86C174.428 104.433 177.833 101.028 182.192 98.6445C186.551 96.2608 191.557 95.0689 197.21 95.0689C202.726 95.0689 207.63 96.2267 211.92 98.5423C216.211 100.858 219.548 104.161 221.932 108.452C224.384 112.742 225.61 117.748 225.61 123.469ZM207.732 118.872C207.732 115.875 206.71 113.492 204.667 111.721C202.624 109.95 200.07 109.065 197.005 109.065C194.077 109.065 191.591 109.916 189.548 111.619C187.573 113.321 186.347 115.739 185.87 118.872H207.732Z" fill="white"/>
<path d="M261.182 152.891L246.267 125.819H242.079V152.891H224.61V81.1754H253.929C259.582 81.1754 264.383 82.1629 268.333 84.138C272.352 86.113 275.348 88.8373 277.323 92.3106C279.298 95.7159 280.286 99.5298 280.286 103.752C280.286 108.52 278.924 112.776 276.2 116.522C273.543 120.268 269.593 122.924 264.349 124.491L280.899 152.891H261.182ZM242.079 113.457H252.907C256.108 113.457 258.492 112.674 260.059 111.108C261.693 109.541 262.51 107.328 262.51 104.468C262.51 101.743 261.693 99.598 260.059 98.0315C258.492 96.4651 256.108 95.6819 252.907 95.6819H242.079V113.457Z" fill="white"/>
<path d="M298.505 95.8862V152.891H281.036V95.8862H298.505Z" fill="white"/>
<path d="M324.139 153.708C319.167 153.708 314.741 152.857 310.858 151.154C306.976 149.451 303.912 147.136 301.664 144.207C299.417 141.211 298.157 137.873 297.884 134.196H315.149C315.353 136.171 316.273 137.771 317.907 138.997C319.542 140.223 321.551 140.836 323.935 140.836C326.114 140.836 327.783 140.427 328.941 139.61C330.166 138.725 330.779 137.601 330.779 136.239C330.779 134.604 329.928 133.412 328.225 132.663C326.523 131.846 323.764 130.961 319.951 130.007C315.864 129.054 312.459 128.066 309.735 127.045C307.01 125.955 304.661 124.286 302.686 122.039C300.711 119.723 299.723 116.624 299.723 112.742C299.723 109.473 300.609 106.511 302.379 103.855C304.218 101.13 306.874 98.985 310.348 97.4186C313.889 95.8521 318.078 95.0689 322.913 95.0689C330.064 95.0689 335.683 96.8397 339.769 100.381C343.924 103.923 346.307 108.622 346.92 114.479H330.779C330.507 112.504 329.622 110.938 328.123 109.78C326.693 108.622 324.786 108.043 322.402 108.043C320.359 108.043 318.793 108.452 317.703 109.269C316.613 110.018 316.069 111.074 316.069 112.436C316.069 114.07 316.92 115.296 318.623 116.114C320.393 116.931 323.117 117.748 326.795 118.565C331.018 119.655 334.457 120.745 337.113 121.834C339.769 122.856 342.085 124.559 344.06 126.942C346.103 129.258 347.159 132.391 347.227 136.341C347.227 139.678 346.273 142.675 344.366 145.331C342.528 147.919 339.837 149.962 336.296 151.46C332.823 152.959 328.77 153.708 324.139 153.708Z" fill="white"/>
<path d="M403.988 95.8862V152.891H386.519V145.127C384.748 147.647 382.33 149.69 379.266 151.256C376.269 152.754 372.932 153.504 369.254 153.504C364.895 153.504 361.047 152.55 357.71 150.643C354.373 148.668 351.785 145.842 349.946 142.164C348.107 138.486 347.188 134.162 347.188 129.19V95.8862H364.555V126.84C364.555 130.654 365.542 133.617 367.517 135.728C369.492 137.839 372.148 138.895 375.486 138.895C378.891 138.895 381.581 137.839 383.556 135.728C385.531 133.617 386.519 130.654 386.519 126.84V95.8862H403.988Z" fill="white"/>
</svg>
