<svg width="404" height="206" viewBox="0 0 404 206" fill="none" xmlns="http://www.w3.org/2000/svg">
<path d="M328.876 34.6759C328.876 34.6794 328.874 34.6794 328.874 34.6809C320.67 63.4539 350.423 61.6744 345.305 85.428C345.28 85.5418 345.111 85.5154 345.122 85.3997C345.405 82.3373 345.086 79.2377 344.175 76.2954C340.311 63.6644 321.784 61.5881 316.031 55.5688C317.418 53.4542 317.206 50.6227 315.458 48.7426C315.388 48.6606 315.304 48.5787 315.221 48.4967L315.159 48.44C313.068 48.4015 311.307 49.9205 310.974 51.9369C309.184 52.4878 307.615 53.3961 306.302 54.5556C302.312 58.0727 300.694 63.899 302.446 69.0465C305.783 71.1794 310.255 70.7801 313.164 67.8453C313.198 70.5887 312.81 72.3639 312.166 73.5302C312.165 73.5318 312.163 73.5352 312.161 73.5368C310.773 76.0707 308.19 75.7196 306.072 76.2869C303.086 77.1772 301.697 80.7806 303.488 83.4841C307.671 80.1101 310.513 80.7473 313.967 82.1665C315.88 83.3494 318.282 83.3327 320.172 82.2031C321.602 74.0443 330.754 69.7536 337.913 74.0043C337.916 74.006 337.918 74.0093 337.921 74.011C331.698 71.2725 324.368 74.3088 321.928 80.8056V80.8089C320.435 86.1261 321.394 89.7779 324.314 93.0704C324.916 93.7492 324.546 94.8306 323.661 94.9953C319.144 95.8403 313.808 97.0216 313.412 98.6189H333.884C347.418 98.6189 358.156 87.8164 358.754 74.8794C359.847 64.5977 354.905 54.8617 355.388 49.3465C355.295 46.0159 358.219 43.5658 361.326 44.0649C361.422 44.0802 361.464 43.9464 361.376 43.9035C356.524 41.5184 350.325 44.2446 349.324 50.1378C349.314 50.1987 349.225 50.1927 349.223 50.1313C349.051 45.7717 352.289 41.9838 356.659 41.5555C361.477 41.0829 365.278 44.8728 365.64 48.6794C365.673 48.7654 365.759 48.7486 365.781 48.6905C374.76 24.3995 338.246 10.3306 328.876 34.6759Z" fill="white"/>
<path d="M299.511 77.4957L299.492 77.4365L299.492 77.436C299.373 77.0555 299.258 76.6902 299.186 76.3294C299.127 76.0386 298.985 75.7792 298.784 75.5782C298.583 75.3772 298.323 75.2346 298.033 75.1762C297.672 75.1038 297.306 74.9893 296.926 74.8701L296.866 74.8513C294.496 74.1102 291.289 73.1214 286.33 77.6771C286.33 77.6771 288.682 81.4314 290.656 83.4342C292.735 85.5426 296.685 88.032 296.685 88.032C301.24 83.073 300.252 79.8657 299.511 77.4957Z" fill="white"/>
<path d="M281.112 91.1705L283.262 89.0206C280.796 85.8292 280.21 81.6778 282.152 79.7362L283.191 78.6967C283.765 78.1226 284.696 78.1226 285.27 78.6967C285.27 78.6967 287.744 82.4932 289.778 84.5319C291.831 86.5907 295.665 89.0915 295.665 89.0915C296.239 89.6655 296.239 90.5964 295.665 91.1705L294.626 92.21C292.684 94.1516 288.533 93.5662 285.341 91.0995L283.191 93.2494L281.112 91.1705Z" fill="white"/>
<path d="M81.2224 81.1754V152.891H63.7533V109.882L47.7144 152.891H33.6165L17.4755 109.78V152.891H0.00634766V81.1754H20.6424L40.7676 130.824L60.6885 81.1754H81.2224Z" fill="white"/>
<path d="M109.517 153.708C103.932 153.708 98.8926 152.516 94.3976 150.132C89.9707 147.749 86.4633 144.343 83.8753 139.917C81.3554 135.49 80.0954 130.314 80.0954 124.388C80.0954 118.531 81.3894 113.389 83.9774 108.963C86.5655 104.468 90.107 101.028 94.6019 98.6445C99.0969 96.2608 104.137 95.069 109.721 95.069C115.306 95.069 120.346 96.2608 124.841 98.6445C129.336 101.028 132.877 104.468 135.465 108.963C138.053 113.389 139.347 118.531 139.347 124.388C139.347 130.246 138.019 135.422 135.363 139.917C132.775 144.343 129.2 147.749 124.637 150.132C120.142 152.516 115.102 153.708 109.517 153.708ZM109.517 138.589C112.854 138.589 115.681 137.363 117.996 134.911C120.38 132.459 121.572 128.952 121.572 124.388C121.572 119.825 120.414 116.318 118.098 113.866C115.851 111.414 113.059 110.188 109.721 110.188C106.316 110.188 103.49 111.414 101.242 113.866C98.9948 116.25 97.871 119.757 97.871 124.388C97.871 128.952 98.9607 132.459 101.14 134.911C103.388 137.363 106.18 138.589 109.517 138.589Z" fill="white"/>
<path d="M155.868 105.387C157.911 102.254 160.465 99.8023 163.53 98.0316C166.595 96.1927 170 95.2733 173.746 95.2733V113.764H168.945C164.586 113.764 161.317 114.717 159.137 116.624C156.958 118.463 155.868 121.732 155.868 126.432V152.891H138.399V95.8862H155.868V105.387Z" fill="white"/>
<path d="M225.615 123.469C225.615 125.104 225.513 126.806 225.309 128.577H185.774C186.046 132.118 187.17 134.843 189.145 136.75C191.188 138.588 193.674 139.508 196.602 139.508C200.961 139.508 203.992 137.669 205.695 133.991H224.287C223.334 137.737 221.597 141.108 219.077 144.105C216.626 147.102 213.527 149.451 209.781 151.154C206.035 152.857 201.847 153.708 197.215 153.708C191.631 153.708 186.659 152.516 182.3 150.132C177.941 147.749 174.536 144.343 172.084 139.917C169.633 135.49 168.407 130.314 168.407 124.388C168.407 118.463 169.599 113.287 171.982 108.86C174.434 104.434 177.839 101.028 182.198 98.6445C186.557 96.2608 191.563 95.069 197.215 95.069C202.732 95.069 207.636 96.2268 211.926 98.5424C216.217 100.858 219.554 104.161 221.938 108.452C224.39 112.742 225.615 117.748 225.615 123.469ZM207.738 118.872C207.738 115.875 206.716 113.492 204.673 111.721C202.63 109.95 200.076 109.065 197.011 109.065C194.083 109.065 191.597 109.916 189.553 111.619C187.578 113.321 186.353 115.739 185.876 118.872H207.738Z" fill="white"/>
<path d="M261.188 152.891L246.273 125.819H242.084V152.891H224.615V81.1754H253.935C259.588 81.1754 264.389 82.1629 268.339 84.138C272.357 86.1131 275.354 88.8373 277.329 92.3107C279.304 95.716 280.292 99.5299 280.292 103.752C280.292 108.52 278.93 112.776 276.205 116.522C273.549 120.268 269.599 122.924 264.355 124.491L280.905 152.891H261.188ZM242.084 113.458H252.913C256.114 113.458 258.498 112.674 260.064 111.108C261.699 109.541 262.516 107.328 262.516 104.468C262.516 101.743 261.699 99.598 260.064 98.0316C258.498 96.4651 256.114 95.6819 252.913 95.6819H242.084V113.458Z" fill="white"/>
<path d="M298.511 95.8862V152.891H281.042V95.8862H298.511Z" fill="white"/>
<path d="M324.145 153.708C319.173 153.708 314.746 152.857 310.864 151.154C306.982 149.451 303.918 147.136 301.67 144.207C299.423 141.211 298.163 137.873 297.89 134.196H315.155C315.359 136.171 316.279 137.771 317.913 138.997C319.548 140.223 321.557 140.836 323.941 140.836C326.12 140.836 327.789 140.427 328.946 139.61C330.172 138.725 330.785 137.601 330.785 136.239C330.785 134.604 329.934 133.412 328.231 132.663C326.529 131.846 323.77 130.961 319.956 130.007C315.87 129.054 312.465 128.066 309.741 127.045C307.016 125.955 304.667 124.286 302.692 122.039C300.717 119.723 299.729 116.624 299.729 112.742C299.729 109.473 300.614 106.511 302.385 103.855C304.224 101.13 306.88 98.985 310.354 97.4186C313.895 95.8522 318.084 95.069 322.919 95.069C330.07 95.069 335.689 96.8397 339.775 100.381C343.93 103.923 346.313 108.622 346.926 114.479H330.785C330.513 112.504 329.627 110.938 328.129 109.78C326.699 108.622 324.792 108.043 322.408 108.043C320.365 108.043 318.799 108.452 317.709 109.269C316.619 110.018 316.074 111.074 316.074 112.436C316.074 114.07 316.926 115.296 318.628 116.114C320.399 116.931 323.123 117.748 326.801 118.565C331.024 119.655 334.463 120.745 337.119 121.835C339.775 122.856 342.091 124.559 344.066 126.942C346.109 129.258 347.165 132.391 347.233 136.341C347.233 139.678 346.279 142.675 344.372 145.331C342.533 147.919 339.843 149.962 336.302 151.46C332.828 152.959 328.776 153.708 324.145 153.708Z" fill="white"/>
<path d="M403.994 95.8862V152.891H386.525V145.127C384.754 147.647 382.336 149.69 379.271 151.256C376.275 152.754 372.938 153.504 369.26 153.504C364.901 153.504 361.053 152.55 357.716 150.643C354.379 148.668 351.791 145.842 349.952 142.164C348.113 138.486 347.194 134.162 347.194 129.19V95.8862H364.561V126.84C364.561 130.654 365.548 133.617 367.523 135.728C369.498 137.839 372.154 138.895 375.492 138.895C378.897 138.895 381.587 137.839 383.562 135.728C385.537 133.617 386.525 130.654 386.525 126.84V95.8862H403.994Z" fill="white"/>
<path d="M9.11964 183.708C7.41228 183.708 5.88231 183.43 4.52973 182.873C3.17715 182.317 2.09065 181.494 1.27023 180.403C0.47199 179.313 0.0506946 178 0.00634766 176.464H6.0597C6.14839 177.332 6.44774 178 6.95772 178.467C7.46771 178.912 8.13292 179.135 8.95334 179.135C9.79593 179.135 10.4611 178.946 10.9489 178.567C11.4368 178.167 11.6807 177.622 11.6807 176.932C11.6807 176.353 11.4811 175.875 11.082 175.496C10.705 175.118 10.2283 174.807 9.6518 174.562C9.09746 174.317 8.29922 174.039 7.25707 173.727C5.74927 173.26 4.51864 172.793 3.56519 172.325C2.61173 171.858 1.79131 171.168 1.10393 170.256C0.416556 169.343 0.072868 168.153 0.072868 166.684C0.072868 164.503 0.860026 162.801 2.43434 161.577C4.00866 160.331 6.0597 159.708 8.58747 159.708C11.1596 159.708 13.2328 160.331 14.8071 161.577C16.3814 162.801 17.224 164.515 17.3349 166.718H11.1818C11.1374 165.961 10.8603 165.371 10.3503 164.948C9.84027 164.503 9.18616 164.281 8.38791 164.281C7.70054 164.281 7.1462 164.47 6.7249 164.848C6.30361 165.204 6.09296 165.727 6.09296 166.417C6.09296 167.174 6.44774 167.764 7.15729 168.186C7.86684 168.609 8.97551 169.065 10.4833 169.555C11.9911 170.067 13.2106 170.556 14.1419 171.024C15.0954 171.491 15.9158 172.17 16.6032 173.06C17.2906 173.95 17.6342 175.096 17.6342 176.498C17.6342 177.833 17.2906 179.046 16.6032 180.136C15.938 181.227 14.9623 182.095 13.6763 182.74C12.3902 183.385 10.8713 183.708 9.11964 183.708Z" fill="white"/>
<path d="M36.6003 160.042V164.615H30.4139V183.474H24.7265V164.615H18.5401V160.042H36.6003Z" fill="white"/>
<path d="M50.0315 183.474L45.1755 174.629H43.8118V183.474H38.1243V160.042H47.67C49.5104 160.042 51.0736 160.364 52.3597 161.01C53.6679 161.655 54.6435 162.545 55.2866 163.68C55.9296 164.793 56.2511 166.039 56.2511 167.419C56.2511 168.976 55.8077 170.367 54.9207 171.591C54.056 172.815 52.7699 173.683 51.0625 174.195L56.4507 183.474H50.0315ZM43.8118 170.59H47.3374C48.3795 170.59 49.1556 170.334 49.6656 169.822C50.1978 169.31 50.4639 168.587 50.4639 167.652C50.4639 166.762 50.1978 166.061 49.6656 165.549C49.1556 165.038 48.3795 164.782 47.3374 164.782H43.8118V170.59Z" fill="white"/>
<path d="M64.1785 164.615V169.355H71.7951V173.761H64.1785V178.901H72.7929V183.474H58.491V160.042H72.7929V164.615H64.1785Z" fill="white"/>
<path d="M89.6896 179.335H80.9754L79.5785 183.474H73.6249L82.073 160.042H88.6585L97.1066 183.474H91.0865L89.6896 179.335ZM88.2261 174.929L85.3325 166.35L82.4721 174.929H88.2261Z" fill="white"/>
<path d="M124.789 160.042V183.474H119.102V169.421L113.88 183.474H109.29L104.035 169.388V183.474H98.3473V160.042H105.066L111.618 176.264L118.104 160.042H124.789Z" fill="white"/>
<path d="M147.402 171.458C148.755 171.747 149.841 172.426 150.662 173.494C151.482 174.54 151.892 175.741 151.892 177.099C151.892 179.057 151.205 180.615 149.83 181.772C148.478 182.907 146.582 183.474 144.143 183.474H133.267V160.042H143.777C146.149 160.042 148.001 160.587 149.331 161.677C150.684 162.768 151.36 164.248 151.36 166.117C151.36 167.496 150.994 168.643 150.263 169.555C149.553 170.467 148.6 171.101 147.402 171.458ZM138.954 169.522H142.679C143.611 169.522 144.32 169.321 144.808 168.921C145.318 168.498 145.573 167.886 145.573 167.085C145.573 166.284 145.318 165.672 144.808 165.249C144.32 164.826 143.611 164.615 142.679 164.615H138.954V169.522ZM143.145 178.868C144.098 178.868 144.83 178.656 145.34 178.234C145.872 177.789 146.138 177.154 146.138 176.331C146.138 175.508 145.861 174.862 145.307 174.395C144.775 173.928 144.032 173.694 143.078 173.694H138.954V178.868H143.145Z" fill="white"/>
<path d="M159.548 160.042V183.474H153.861V160.042H159.548Z" fill="white"/>
<path d="M183.227 183.474H177.539L168.027 169.021V183.474H162.339V160.042H168.027L177.539 174.562V160.042H183.227V183.474Z" fill="white"/>
<path d="M201.518 167.452C201.097 166.673 200.487 166.083 199.689 165.683C198.913 165.26 197.993 165.049 196.928 165.049C195.088 165.049 193.613 165.661 192.505 166.885C191.396 168.086 190.842 169.7 190.842 171.725C190.842 173.883 191.418 175.574 192.571 176.798C193.747 178 195.354 178.601 197.394 178.601C198.791 178.601 199.966 178.245 200.92 177.533C201.895 176.821 202.605 175.797 203.048 174.462H195.831V170.256H208.204V175.563C207.782 176.987 207.062 178.312 206.042 179.535C205.044 180.759 203.769 181.75 202.217 182.506C200.665 183.263 198.913 183.641 196.962 183.641C194.656 183.641 192.594 183.14 190.775 182.139C188.979 181.115 187.571 179.702 186.551 177.9C185.553 176.097 185.055 174.039 185.055 171.725C185.055 169.41 185.553 167.352 186.551 165.549C187.571 163.725 188.979 162.312 190.775 161.31C192.571 160.286 194.622 159.775 196.928 159.775C199.722 159.775 202.073 160.453 203.98 161.811C205.909 163.168 207.184 165.049 207.804 167.452H201.518Z" fill="white"/>
<path d="M221.066 183.708C218.871 183.708 216.853 183.196 215.013 182.172C213.194 181.149 211.742 179.725 210.656 177.9C209.591 176.053 209.059 173.983 209.059 171.691C209.059 169.399 209.591 167.341 210.656 165.516C211.742 163.691 213.194 162.267 215.013 161.243C216.853 160.22 218.871 159.708 221.066 159.708C223.261 159.708 225.268 160.22 227.086 161.243C228.926 162.267 230.368 163.691 231.41 165.516C232.474 167.341 233.006 169.399 233.006 171.691C233.006 173.983 232.474 176.053 231.41 177.9C230.346 179.725 228.904 181.149 227.086 182.172C225.268 183.196 223.261 183.708 221.066 183.708ZM221.066 178.501C222.929 178.501 224.414 177.878 225.523 176.631C226.654 175.385 227.219 173.738 227.219 171.691C227.219 169.622 226.654 167.975 225.523 166.751C224.414 165.505 222.929 164.882 221.066 164.882C219.181 164.882 217.673 165.494 216.543 166.718C215.434 167.942 214.88 169.599 214.88 171.691C214.88 173.761 215.434 175.419 216.543 176.665C217.673 177.889 219.181 178.501 221.066 178.501Z" fill="white"/>
</svg>
